<svg id="Shape_3" data-name="Shape 3" xmlns="http://www.w3.org/2000/svg" width="134.02717mm" height="336.83043mm" viewBox="0 0 379.91955 954.79492">
  <defs>
    <style>
      .cls-1 {
        fill: none;
        stroke: #d6d12b;
        stroke-miterlimit: 10;
      }
    </style>
  </defs>
  <path class="cls-1" d="M228.81175,893.27289C228.81169,1022,365.442,1083.8927,369.25372,1147.00378c15.74387.033,29.07718.88892,46.64521,0,.43353-62.78161,136.912-125.8927,136.91284-253.73089,0,6.53769,12.8549-124.60622,27.86795-309.93956-16.34639-103.29452-15.01305-133.487-27.86795-233.064-18.55251-139.82488-158.31215-96.56009-158.31215-157.158,0,60.59787-142.31443,17.92568-165.68793,157.158-16.67529,99.33218-27.00163,227.005-27.00163,227.005H393.81272s-17.00107-211.22732-17.00107-217.22732,1.671-11.18518,6.99978-11.18518c7.51847,0,8.77759,4.2222,8.77759,11.18518,0,10.66666,17.44553,231.2272,17.44553,231.2272H201.81006Z" transform="translate(-201.26336 -193.11136)"/>
</svg>
